<?xml version="1.0" encoding="utf-8"?>
<svg xmlns="http://www.w3.org/2000/svg"
	xmlns:xlink="http://www.w3.org/1999/xlink"
	width="7px" height="10px" viewBox="0 0 7 10">
<path fillRule="evenodd" d="M 0.59 1.41C 0.59 1.41 2-0 2-0 2-0 7 5 7 5 7 5 5.59 6.41 5.59 6.41 5.59 6.41 0.59 1.41 0.59 1.41M 5.59 3.59C 5.59 3.59 7 5 7 5 7 5 2 10 2 10 2 10 0.59 8.59 0.59 8.59 0.59 8.59 5.59 3.59 5.59 3.59M 5.59 6.41C 5.59 6.41 7 5 7 5 7 5 7 5 7 5 7 5 5.59 6.41 5.59 6.41 5.59 6.41 5.59 6.41 5.59 6.41ZM 7 5C 7 5 5.59 3.59 5.59 3.59 5.59 3.59 7 5 7 5 7 5 7 5 7 5 7 5 7 5 7 5Z" fill="rgb(255,255,255)" opacity="0.50"/></svg>