<svg width="24" height="24" viewBox="0 0 24 24" fill="none" xmlns="http://www.w3.org/2000/svg">
<rect width="24" height="24" />
<path d="M5.9005 18.6L1 22.45V2.1C1 1.80826 1.11589 1.52847 1.32218 1.32218C1.52847 1.11589 1.80826 1 2.1 1H21.9C22.1917 1 22.4715 1.11589 22.6778 1.32218C22.8841 1.52847 23 1.80826 23 2.1V17.5C23 17.7917 22.8841 18.0715 22.6778 18.2778C22.4715 18.4841 22.1917 18.6 21.9 18.6H5.9005ZM5.1393 16.4H20.8V3.2H3.2V17.9235L5.1393 16.4ZM7.6 8.7H16.4V10.9H7.6V8.7Z" fill="#DDA0DD"/>
</svg>
