<svg width="24" height="24" viewBox="0 0 24 24" fill="none" xmlns="http://www.w3.org/2000/svg">
<rect width="24" height="24"/>
<path d="M1 18.0528H8.02641V20.0604H1V18.0528ZM1 11.0264H10.034V13.034H1V11.0264ZM1 4H21.0755V6.00755H1V4Z" fill="#DDA0DD"/>
<path d="M17.5629 20.9806C14.56 20.9806 12.1258 18.5464 12.1258 15.5435C12.1258 12.5405 14.56 10.1064 17.5629 10.1064C20.5658 10.1064 23 12.5405 23 15.5435C23 18.5464 20.5658 20.9806 17.5629 20.9806ZM17.0192 17.1746V18.262H18.1066V17.1746H17.0192ZM18.1066 16.2802C18.5436 16.1485 18.9187 15.8642 19.1637 15.4792C19.4086 15.0941 19.5072 14.6339 19.4413 14.1823C19.3754 13.7307 19.1495 13.3177 18.8047 13.0187C18.46 12.7197 18.0193 12.5544 17.5629 12.5531C17.123 12.553 16.6966 12.7054 16.3563 12.9842C16.016 13.263 15.7828 13.6511 15.6963 14.0825L16.7631 14.2962C16.7934 14.1447 16.866 14.005 16.9726 13.8932C17.0792 13.7814 17.2154 13.7022 17.3652 13.6648C17.5151 13.6274 17.6725 13.6332 17.8191 13.6818C17.9657 13.7303 18.0956 13.8195 18.1935 13.9389C18.2914 14.0584 18.3534 14.2032 18.3723 14.3565C18.3912 14.5098 18.3661 14.6653 18.3 14.8049C18.234 14.9445 18.1296 15.0625 17.9991 15.1451C17.8686 15.2277 17.7174 15.2716 17.5629 15.2716C17.4187 15.2716 17.2804 15.3289 17.1784 15.4309C17.0765 15.5328 17.0192 15.6711 17.0192 15.8153V16.6309H18.1066V16.2802Z" fill="#DDA0DD"/>
</svg>
