<svg width="191" height="191" viewBox="0 0 191 191" fill="none" xmlns="http://www.w3.org/2000/svg">
<g opacity="0.1" clip-path="url(#clip0)">
<path d="M43.2144 110.05C43.2144 98.7892 52.3753 89.6283 63.6365 89.6283H126.759C131.878 89.6283 136.042 85.4642 136.042 80.3456V27.991C136.042 12.6353 123.549 0.142822 108.194 0.142822L82.2019 0.142822C66.8462 0.142822 54.3537 12.6353 54.3537 27.991V43.2147L95.1977 43.2147C98.2741 43.2147 100.767 45.708 100.767 48.7843C100.767 51.8607 98.2741 54.354 95.1977 54.354L27.9908 54.354C12.6351 54.354 0.142578 66.8465 0.142578 82.2022L0.142578 108.194C0.142578 123.549 12.6351 136.042 27.9908 136.042H43.2144V110.05ZM82.2019 28.3623C79.1256 28.3623 76.6323 25.869 76.6323 22.7927C76.6323 19.7163 79.1256 17.223 82.2019 17.223C85.2783 17.223 87.7716 19.7163 87.7716 22.7927C87.7716 25.869 85.2783 28.3623 82.2019 28.3623Z" fill="white"/>
<path d="M162.405 54.354H147.181V80.3456C147.181 91.6068 138.02 100.768 126.759 100.768H63.6362C58.5177 100.768 54.3535 104.932 54.3535 110.05L54.3535 162.405C54.3535 177.761 66.846 190.253 82.2017 190.253H108.193C123.549 190.253 136.042 177.761 136.042 162.405V147.181H95.1975C92.1212 147.181 89.6279 144.688 89.6279 141.612C89.6279 138.535 92.1212 136.042 95.1975 136.042H162.405C177.76 136.042 190.253 123.55 190.253 108.194V82.2022C190.253 66.8465 177.76 54.354 162.405 54.354ZM108.193 162.034C111.27 162.034 113.763 164.527 113.763 167.603C113.763 170.68 111.27 173.173 108.193 173.173C105.117 173.173 102.624 170.68 102.624 167.603C102.624 164.527 105.117 162.034 108.193 162.034Z" fill="white"/>
</g>
<defs>
<clipPath id="clip0">
<rect width="190.11" height="190.11" fill="white" transform="translate(0.142578 0.142822)"/>
</clipPath>
</defs>
</svg>
