<svg width="202" height="202" viewBox="0 0 202 202" fill="none" xmlns="http://www.w3.org/2000/svg">
<g opacity="0.1">
<path d="M100.771 117.589C110.041 117.589 117.556 110.074 117.556 100.804C117.556 91.5336 110.041 84.0186 100.771 84.0186C91.5008 84.0186 83.9858 91.5336 83.9858 100.804C83.9858 110.074 91.5008 117.589 100.771 117.589Z" fill="white"/>
<path d="M100.771 139.257C77.1983 139.257 56.6013 136.482 41.1869 131.199C31.1894 127.788 22.6964 123.241 16.6444 118.058C10.2245 112.575 6.81396 106.589 6.81396 100.805C6.81396 89.7039 18.9849 78.837 39.4148 71.7484C56.1332 65.9304 77.9339 62.687 100.738 62.687C123.14 62.687 144.64 65.8301 161.258 71.5812C170.988 74.9249 179.18 79.2716 184.998 84.0865C191.318 89.3695 194.662 95.1541 194.662 100.805C194.662 112.341 181.053 124.01 159.118 131.266C143.604 136.415 122.873 139.257 100.771 139.257ZM100.771 70.7118C79.1376 70.7118 57.7381 73.8549 42.0897 79.3051C23.2983 85.8587 14.8722 94.8197 14.8722 100.805C14.8722 107.024 23.9336 116.821 43.795 123.609C58.3734 128.591 78.1011 131.232 100.771 131.232C122.037 131.232 141.865 128.557 156.611 123.642C177.241 116.788 186.67 106.991 186.67 100.805C186.67 97.6284 184.263 93.8835 179.883 90.2389C174.834 86.0259 167.478 82.1806 158.684 79.1379C142.868 73.7211 122.304 70.7118 100.771 70.7118Z" fill="white"/>
<path d="M62.6867 184.463C59.2761 184.463 56.2668 183.728 53.7256 182.256C44.1293 176.706 40.7856 160.723 44.8314 139.491C48.1417 122.07 56.2334 101.607 67.6353 81.8457C78.8366 62.4524 92.2782 45.3996 105.553 33.864C113.31 27.1097 121.168 22.1611 128.256 19.553C135.98 16.7109 142.667 16.7109 147.549 19.5196C157.547 25.2707 160.857 42.9253 156.176 65.5286C152.866 81.5782 144.975 100.938 133.94 120.097C122.171 140.494 109.465 156.945 97.1934 167.678C89.2354 174.633 81.0434 179.715 73.5536 182.357C69.6415 183.761 65.9635 184.463 62.6867 184.463ZM71.0793 83.8519L74.5567 85.8581C63.7566 104.583 55.7653 124.678 52.6891 140.995C48.9776 160.556 52.5553 172.326 57.7046 175.301C58.9752 176.037 60.647 176.438 62.6867 176.438C69.3406 176.438 79.8063 172.225 91.9104 161.659C103.513 151.528 115.65 135.746 126.986 116.118C137.618 97.6947 145.175 79.1708 148.318 63.957C152.698 42.6578 148.92 29.6175 143.537 26.5079C140.795 24.9363 136.348 25.137 130.998 27.1097C124.812 29.3834 117.824 33.8305 110.802 39.9495C98.1965 50.9167 85.3234 67.2339 74.5567 85.8916L71.0793 83.8519Z" fill="white"/>
<path d="M138.856 184.564C129.761 184.564 118.225 179.08 106.188 168.715C92.7466 157.145 79.071 139.926 67.6356 120.164C56.4009 100.771 48.3761 80.6087 44.9989 63.3219C43.0262 53.224 42.6584 43.962 43.929 36.5056C45.3333 28.3805 48.6436 22.5959 53.5588 19.7538C63.5229 13.9692 80.4753 19.921 97.7287 35.2685C109.967 46.1354 122.806 62.6532 133.874 81.779C145.677 102.175 153.601 121.402 156.745 137.384C158.784 147.75 159.119 157.38 157.681 165.204C156.143 173.529 152.665 179.448 147.65 182.357C145.142 183.828 142.166 184.564 138.856 184.564ZM74.5905 116.152C85.424 134.877 98.8655 151.829 111.438 162.629C126.518 175.603 138.488 178.411 143.671 175.402C149.054 172.292 153 159.553 148.92 138.956C145.911 123.842 138.321 105.452 126.952 85.8248C116.286 67.4012 104.015 51.5856 92.4122 41.2871C76.162 26.8424 62.9879 23.599 57.6046 26.7086C54.8628 28.2802 52.8231 32.2591 51.8535 37.8765C50.7501 44.3633 51.0844 52.6556 52.89 61.7838C56.0999 78.2012 63.7904 97.4943 74.5905 116.152Z" fill="white"/>
</g>
</svg>
