<svg width="201" height="201" viewBox="0 0 201 201" fill="none" xmlns="http://www.w3.org/2000/svg">
<g opacity="0.1" clip-path="url(#clip0)">
<path d="M200.294 67.3696C200.315 67.2804 200.347 67.1947 200.361 67.1055C200.419 66.7059 200.408 66.3026 200.329 65.8994C200.311 65.803 200.269 65.7174 200.24 65.6246C200.183 65.4284 200.144 65.2321 200.055 65.0465C199.994 64.9216 199.901 64.8253 199.83 64.7111C199.79 64.6504 199.787 64.5826 199.744 64.522L172.981 27.0534C172.603 26.5253 172.092 26.1863 171.539 25.9365C171.186 25.1194 170.554 24.4342 169.709 24.0702L136.701 9.79652C136.251 9.60382 135.773 9.50391 135.284 9.50391H65.6996C65.2107 9.50391 64.7326 9.60382 64.2829 9.79652L31.275 24.0702C30.4328 24.4342 29.8012 25.1194 29.4479 25.933C28.8984 26.1828 28.3845 26.5253 28.0063 27.0534L1.24308 64.522C1.20026 64.5791 1.19669 64.6504 1.15743 64.7111C1.08607 64.8253 0.993287 64.9216 0.936192 65.0465C0.846981 65.2321 0.807728 65.4319 0.750633 65.6246C0.725654 65.7174 0.682833 65.8066 0.664991 65.8994C0.582917 66.2991 0.57578 66.7059 0.632875 67.1055C0.647149 67.1983 0.679265 67.2804 0.700675 67.3696C0.772044 67.6836 0.882665 67.9833 1.03611 68.2724C1.0932 68.3794 1.1503 68.4794 1.2181 68.5828C1.26806 68.6578 1.2966 68.7434 1.3537 68.8184L97.7013 190.145C97.7298 190.181 97.7762 190.195 97.8048 190.227C98.1117 190.584 98.4685 190.877 98.8824 191.087C98.9467 191.119 99.0145 191.141 99.0823 191.169C99.5248 191.362 99.9994 191.494 100.499 191.494C100.999 191.494 101.473 191.362 101.916 191.169C101.983 191.141 102.051 191.119 102.115 191.087C102.526 190.877 102.886 190.584 103.193 190.227C103.222 190.195 103.268 190.181 103.297 190.145L199.644 68.8184C199.701 68.747 199.73 68.6578 199.783 68.5828C199.851 68.4829 199.908 68.3794 199.965 68.2724C200.112 67.9833 200.222 67.6836 200.294 67.3696ZM66.4418 16.6372H134.549L160.131 27.6993L134.385 41.6162H66.606L40.8598 27.6993L66.4418 16.6372ZM56.75 105.848H144.241L100.495 180.842L56.75 105.848ZM56.8927 98.7111L69.3822 48.7531H131.716L146.218 98.7111H56.8927ZM10.5888 63.7191L33.4018 31.7816L62.356 47.4328L50.2233 95.967L10.7815 63.8297C10.7244 63.7797 10.6495 63.7619 10.5888 63.7191ZM47.0046 102.551C47.0439 103.079 47.1795 103.603 47.4578 104.078L72.319 146.703L19.3885 80.0482L47.0046 102.551ZM128.672 146.703L153.536 104.078C153.815 103.603 153.947 103.079 153.99 102.551L181.609 80.0482L128.672 146.703ZM152.455 94.5896L138.745 47.3721L167.589 31.7816L190.402 63.7191C190.341 63.7619 190.266 63.7797 190.206 63.8297L152.455 94.5896Z" fill="white"/>
</g>
<defs>
<clipPath id="clip0">
<rect width="199.804" height="199.804" fill="white" transform="translate(0.59375 0.593506)"/>
</clipPath>
</defs>
</svg>
